# xmcd
#
# Track frame offsets:
#	150
#	17492
#	33990
#	47827
#	67672
#	79592
#	95430
#	110217
#	124670
#	137982
#	149352
#	162827
#	177260
#	191167
#	207365
#	220232
#
# Disc length: 3119
#
# Revision: 3
# Processed by: cddbd v1.5.1PL0 Copyright (c) Steve Scherf et al.
# Submitted via: xmcd 2.2 PL0
# Normalized: r1:TDELIM( - ),TSWAP
#
DISCID=e40c2d10
DTITLE=Misc. Artists/Born to Boogie 4
DYEAR=1900
DGENRE=
TTITLE0=Dan Seals - Love on Arrival
TTITLE1=Shenandoah - Next to You, Next to Me
TTITLE2=Dean Dillon - Holed Up In Some Honky Tonk
TTITLE3=Restless Heart - Fast Movin' Train
TTITLE4=Ricky Scaggs - Heartbreak Hurricane
TTITLE5=Billy Dean - Only Here For A Little While
TTITLE6=Highway 101 - Someone Else's Trouble Now
TTITLE7=Alabama - Song of the South
TTITLE8=Desert Rose Band - She Don't Love Nobody
TTITLE9=Ricky Van Shelton - Hole In My Pocket
TTITLE10=Waylon Jennings - Wrong
TTITLE11=Marty Stuart - Little Things
TTITLE12=Patty Loveless - I'm That Kind Of Girl
TTITLE13=Exile - Nobody's Talking
TTITLE14=Mark Collie - Let Her Go
TTITLE15=Mark Chesnutt - Brother Jukebox
EXTD=
EXTT0=
EXTT1=
EXTT2=
EXTT3=
EXTT4=
EXTT5=
EXTT6=
EXTT7=
EXTT8=
EXTT9=
EXTT10=
EXTT11=
EXTT12=
EXTT13=
EXTT14=
EXTT15=
PLAYORDER=
